# Blender 4.0.2
# www.blender.org
mtllib single_grain_simplified1_PBR.mtl
o Sphere.001
v 0.000000 4.583619 -1.405903
v 0.000000 1.909432 -2.274799
v 0.000000 0.713499 -1.405903
v 1.217548 4.583619 -0.702952
v 1.970034 3.387686 -1.137400
v 1.970034 1.909432 -1.137400
v 1.217548 0.713499 -0.702952
v 1.217548 4.583619 0.702952
v 1.970034 3.387686 1.137400
v 1.970034 1.909432 1.137400
v 1.217548 0.713499 0.702952
v -0.000000 4.583619 1.405903
v -0.000000 3.387686 2.274799
v -0.000000 1.909432 2.274799
v -0.000000 0.713499 1.405903
v 0.000000 0.256693 0.000000
v 0.000000 5.040424 0.000000
v -1.217548 4.583619 0.702951
v -1.970034 3.387686 1.137399
v -1.970034 1.909432 1.137399
v -1.217548 0.713499 0.702951
v -1.217548 4.583619 -0.702952
v -1.970034 3.387686 -1.137400
v -1.970034 1.909432 -1.137400
v -1.217548 0.713499 -0.702952
v 0.000001 3.387686 -2.274800
vn 0.4232 -0.5326 -0.7330
vn 0.4232 0.5326 -0.7330
vn 0.1756 -0.9363 -0.3042
vn 0.5000 -0.0000 -0.8660
vn 0.1756 0.9363 -0.3042
vn 0.8464 -0.5326 -0.0000
vn 0.8464 0.5326 -0.0000
vn 0.3513 -0.9363 -0.0000
vn 1.0000 -0.0000 -0.0000
vn 0.3513 0.9363 -0.0000
vn 0.4232 -0.5326 0.7330
vn 0.4232 0.5326 0.7330
vn 0.1756 -0.9363 0.3042
vn 0.5000 -0.0000 0.8660
vn 0.1756 0.9363 0.3042
vn -0.4232 -0.5326 0.7330
vn -0.4232 0.5326 0.7330
vn -0.1756 -0.9363 0.3042
vn -0.5000 -0.0000 0.8660
vn -0.1756 0.9363 0.3042
vn -0.8464 -0.5326 -0.0000
vn -0.8464 0.5326 -0.0000
vn -0.3513 -0.9363 -0.0000
vn -1.0000 -0.0000 -0.0000
vn -0.3513 0.9363 -0.0000
vn -0.4232 -0.5326 -0.7330
vn -0.4232 0.5326 -0.7330
vn -0.1756 -0.9363 -0.3042
vn -0.5000 -0.0000 -0.8660
vn -0.1756 0.9363 -0.3042
vt 0.666667 0.200000
vt 0.666667 0.400000
vt 0.500000 0.400000
vt 0.500000 0.200000
vt 0.666667 0.600000
vt 0.666667 0.800000
vt 0.500000 0.800000
vt 0.500000 0.600000
vt 0.583333 0.000000
vt 0.583333 1.000000
vt 0.333333 0.400000
vt 0.333333 0.200000
vt 0.333333 0.800000
vt 0.333333 0.600000
vt 0.416667 0.000000
vt 0.416667 1.000000
vt 0.166667 0.400000
vt 0.166667 0.200000
vt 0.166667 0.800000
vt 0.166667 0.600000
vt 0.250000 0.000000
vt 0.250000 1.000000
vt 0.000000 0.400000
vt 0.000000 0.200000
vt 0.000000 0.800000
vt 0.000000 0.600000
vt 0.083333 0.000000
vt 0.083333 1.000000
vt 1.000000 0.200000
vt 1.000000 0.400000
vt 0.833333 0.400000
vt 0.833333 0.200000
vt 1.000000 0.600000
vt 1.000000 0.800000
vt 0.833333 0.800000
vt 0.833333 0.600000
vt 0.916667 0.000000
vt 0.916667 1.000000
vt 0.750000 0.000000
vt 0.750000 1.000000
s 0
usemtl Material
f 3/1/1 2/2/1 6/3/1 7/4/1
f 26/5/2 1/6/2 4/7/2 5/8/2
f 16/9/3 3/1/3 7/4/3
f 2/2/4 26/5/4 5/8/4 6/3/4
f 1/6/5 17/10/5 4/7/5
f 7/4/6 6/3/6 10/11/6 11/12/6
f 5/8/7 4/7/7 8/13/7 9/14/7
f 16/15/8 7/4/8 11/12/8
f 6/3/9 5/8/9 9/14/9 10/11/9
f 4/7/10 17/16/10 8/13/10
f 11/12/11 10/11/11 14/17/11 15/18/11
f 9/14/12 8/13/12 12/19/12 13/20/12
f 16/21/13 11/12/13 15/18/13
f 10/11/14 9/14/14 13/20/14 14/17/14
f 8/13/15 17/22/15 12/19/15
f 15/18/16 14/17/16 20/23/16 21/24/16
f 13/20/17 12/19/17 18/25/17 19/26/17
f 16/27/18 15/18/18 21/24/18
f 14/17/19 13/20/19 19/26/19 20/23/19
f 12/19/20 17/28/20 18/25/20
f 21/29/21 20/30/21 24/31/21 25/32/21
f 19/33/22 18/34/22 22/35/22 23/36/22
f 16/37/23 21/29/23 25/32/23
f 20/30/24 19/33/24 23/36/24 24/31/24
f 18/34/25 17/38/25 22/35/25
f 25/32/26 24/31/26 2/2/26 3/1/26
f 23/36/27 22/35/27 1/6/27 26/5/27
f 16/39/28 25/32/28 3/1/28
f 24/31/29 23/36/29 26/5/29 2/2/29
f 22/35/30 17/40/30 1/6/30
o Cube.003
v -14.319623 0.251610 18.739223
v -14.319623 0.256693 18.739223
v -14.319623 0.251610 -10.353889
v -14.319623 0.256693 -10.353889
v 15.169963 0.251610 18.739223
v 15.169963 0.256693 18.739223
v 15.169963 0.251610 -10.353889
v 15.169963 0.256693 -10.353889
vn -1.0000 -0.0000 -0.0000
vn -0.0000 -0.0000 -1.0000
vn 1.0000 -0.0000 -0.0000
vn -0.0000 -0.0000 1.0000
vn -0.0000 -1.0000 -0.0000
vn -0.0000 1.0000 -0.0000
vt 0.375000 0.000000
vt 0.625000 0.000000
vt 0.625000 0.250000
vt 0.375000 0.250000
vt 0.625000 0.500000
vt 0.375000 0.500000
vt 0.625000 0.750000
vt 0.375000 0.750000
vt 0.625000 1.000000
vt 0.375000 1.000000
vt 0.125000 0.500000
vt 0.125000 0.750000
vt 0.875000 0.500000
vt 0.875000 0.750000
s 0
usemtl Material.005
f 27/41/31 28/42/31 30/43/31 29/44/31
f 29/44/32 30/43/32 34/45/32 33/46/32
f 33/46/33 34/45/33 32/47/33 31/48/33
f 31/48/34 32/47/34 28/49/34 27/50/34
f 29/51/35 33/46/35 31/48/35 27/52/35
f 34/45/36 30/53/36 28/54/36 32/47/36
